<svg width="21" height="19" viewBox="0 0 21 19" fill="none" xmlns="http://www.w3.org/2000/svg">
<path d="M19.9445 18.0471L15.5577 13.9041C17.0743 12.2672 17.8579 10.1376 17.7429 7.96524C17.628 5.79285 16.6236 3.74767 14.9418 2.26164C13.26 0.775607 11.0325 -0.0349487 8.72965 0.00115642C6.42684 0.0372615 4.22903 0.9172 2.60038 2.45514C0.971725 3.99308 0.0397379 6.06861 0.00124158 8.2434C-0.0372547 10.4182 0.820754 12.522 2.39406 14.1105C3.96737 15.699 6.13281 16.6478 8.43306 16.7566C10.7333 16.8654 12.9883 16.1256 14.7217 14.6934L19.1087 18.8365C19.2195 18.9412 19.3699 19 19.5266 19C19.6834 19 19.8337 18.9412 19.9446 18.8365C20.0554 18.7318 20.1177 18.5898 20.1176 18.4418C20.1176 18.2937 20.0554 18.1518 19.9445 18.0471ZM1.20377 8.39376C1.20377 6.95849 1.65443 5.55545 2.49876 4.36207C3.34309 3.16868 4.54317 2.23855 5.94724 1.6893C7.35131 1.14005 8.89631 0.996335 10.3869 1.27634C11.8774 1.55635 13.2466 2.2475 14.3212 3.26239C15.3958 4.27728 16.1277 5.57033 16.4241 6.97802C16.7206 8.38571 16.5685 9.84482 15.9869 11.1708C15.4053 12.4969 14.4204 13.6302 13.1568 14.4276C11.8932 15.225 10.4075 15.6506 8.88778 15.6506C6.85056 15.6484 4.89744 14.8832 3.45691 13.5227C2.01637 12.1623 1.20607 10.3177 1.20377 8.39376Z" fill="#4A4A4A"/>
</svg>
