<svg width="176" height="66" viewBox="0 0 176 66" fill="none" xmlns="http://www.w3.org/2000/svg">
<g filter="url(#filter0_bi_8_625)">
<mask id="path-1-inside-1_8_625" fill="white">
<path fill-rule="evenodd" clip-rule="evenodd" d="M4.40858 16.9245C1.90566 16.4979 0 14.3136 0 11.6831C0 8.85042 2.2099 6.53511 4.99578 6.37508C4.92688 6.03309 4.89072 5.67922 4.89072 5.31687C4.89072 2.38044 7.26542 0 10.1948 0C12.6645 0 14.74 1.69206 15.3305 3.98281C16.1953 3.36897 17.2516 3.00824 18.3919 3.00824C20.6359 3.00824 22.5544 4.40512 23.3293 6.37875C23.4505 6.37046 23.5727 6.36625 23.6959 6.36625C26.6253 6.36625 29 8.74669 29 11.6831C29 14.3616 27.0241 16.5776 24.4537 16.9461V17H4.40858V16.9245Z"/>
</mask>
<path fill-rule="evenodd" clip-rule="evenodd" d="M4.40858 16.9245C1.90566 16.4979 0 14.3136 0 11.6831C0 8.85042 2.2099 6.53511 4.99578 6.37508C4.92688 6.03309 4.89072 5.67922 4.89072 5.31687C4.89072 2.38044 7.26542 0 10.1948 0C12.6645 0 14.74 1.69206 15.3305 3.98281C16.1953 3.36897 17.2516 3.00824 18.3919 3.00824C20.6359 3.00824 22.5544 4.40512 23.3293 6.37875C23.4505 6.37046 23.5727 6.36625 23.6959 6.36625C26.6253 6.36625 29 8.74669 29 11.6831C29 14.3616 27.0241 16.5776 24.4537 16.9461V17H4.40858V16.9245Z" fill="#79CFFF" fill-opacity="0.2"/>
<path d="M4.40858 16.9245H7.40858V14.3926L4.91263 13.9672L4.40858 16.9245ZM4.99578 6.37508L5.16783 9.37014L8.61951 9.17187L7.93669 5.78259L4.99578 6.37508ZM15.3305 3.98281L12.4254 4.73164L13.5132 8.95143L17.0668 6.42925L15.3305 3.98281ZM23.3293 6.37875L20.5368 7.47513L21.3404 9.52187L23.5341 9.37175L23.3293 6.37875ZM24.4537 16.9461L24.0279 13.9765L21.4537 14.3456V16.9461H24.4537ZM24.4537 17V20H27.4537V17H24.4537ZM4.40858 17H1.40858V20H4.40858V17ZM4.91263 13.9672C3.83221 13.783 3 12.832 3 11.6831H-3C-3 15.7952 -0.020884 19.2129 3.90454 19.8819L4.91263 13.9672ZM3 11.6831C3 10.4434 3.96643 9.43915 5.16783 9.37014L4.82374 3.38002C0.453373 3.63106 -3 7.25747 -3 11.6831H3ZM7.93669 5.78259C7.90687 5.63458 7.89072 5.47916 7.89072 5.31687H1.89072C1.89072 5.87927 1.94689 6.43161 2.05487 6.96757L7.93669 5.78259ZM7.89072 5.31687C7.89072 4.03046 8.92911 3 10.1948 3V-3C5.60174 -3 1.89072 0.73043 1.89072 5.31687H7.89072ZM10.1948 3C11.2584 3 12.167 3.72921 12.4254 4.73164L18.2355 3.23397C17.3129 -0.34508 14.0706 -3 10.1948 -3V3ZM17.0668 6.42925C17.4414 6.16338 17.8944 6.00824 18.3919 6.00824V0.00824142C16.6088 0.00824142 14.9492 0.574566 13.5941 1.53636L17.0668 6.42925ZM18.3919 6.00824C19.3576 6.00824 20.1963 6.60777 20.5368 7.47513L26.1218 5.28237C24.9126 2.20248 21.9142 0.00824142 18.3919 0.00824142V6.00824ZM23.5341 9.37175C23.5872 9.36812 23.6411 9.36625 23.6959 9.36625V3.36625C23.5043 3.36625 23.3137 3.3728 23.1245 3.38575L23.5341 9.37175ZM23.6959 9.36625C24.9616 9.36625 26 10.3967 26 11.6831H32C32 7.09668 28.289 3.36625 23.6959 3.36625V9.36625ZM26 11.6831C26 12.8535 25.1367 13.8175 24.0279 13.9765L24.8795 19.9158C28.9115 19.3376 32 15.8697 32 11.6831H26ZM21.4537 16.9461V17H27.4537V16.9461H21.4537ZM24.4537 14H4.40858V20H24.4537V14ZM7.40858 17V16.9245H1.40858V17H7.40858Z" fill="url(#paint0_linear_8_625)" mask="url(#path-1-inside-1_8_625)"/>
</g>
<path d="M174.25 34.5C174.25 50.784 159.741 64.25 141.5 64.25C123.259 64.25 108.75 50.784 108.75 34.5C108.75 18.216 123.259 4.75 141.5 4.75C159.741 4.75 174.25 18.216 174.25 34.5Z" fill="url(#paint1_radial_8_625)" stroke="#FFC701" stroke-width="3.5"/>
<path d="M28.0625 25.925L22.45 44H19.4125L15.4625 31.65C15.3542 31.35 15.2542 30.9833 15.1625 30.55C15.1125 30.7583 15.0625 30.9542 15.0125 31.1375C14.9625 31.3208 14.9083 31.4917 14.85 31.65L10.8625 44H7.8125L2.2125 25.925H5.025C5.31667 25.925 5.55833 25.9958 5.75 26.1375C5.95 26.2708 6.08333 26.4542 6.15 26.6875L9.225 37.5C9.29167 37.7667 9.35417 38.0583 9.4125 38.375C9.47917 38.6833 9.54583 39.0083 9.6125 39.35C9.67917 39 9.75 38.6708 9.825 38.3625C9.90833 38.0542 9.99583 37.7667 10.0875 37.5L13.6375 26.6875C13.7042 26.4958 13.8333 26.3208 14.025 26.1625C14.225 26.0042 14.4667 25.925 14.75 25.925H15.7375C16.0292 25.925 16.2667 25.9958 16.45 26.1375C16.6333 26.2792 16.7708 26.4625 16.8625 26.6875L20.4 37.5C20.575 38.0167 20.7333 38.6125 20.875 39.2875C20.9833 38.6292 21.1042 38.0333 21.2375 37.5L24.3125 26.6875C24.3625 26.4792 24.4875 26.3 24.6875 26.15C24.8958 26 25.1417 25.925 25.425 25.925H28.0625ZM31.782 28.6V33.6125H38.107V36.2H31.782V41.3125H39.807V44H28.407V25.925H39.807V28.6H31.782ZM50.4619 37.175L48.2619 31.1625C48.1536 30.8958 48.0411 30.5792 47.9244 30.2125C47.8077 29.8458 47.6911 29.45 47.5744 29.025C47.4661 29.45 47.3536 29.85 47.2369 30.225C47.1202 30.5917 47.0077 30.9125 46.8994 31.1875L44.7119 37.175H50.4619ZM56.3994 44H53.7994C53.5077 44 53.2702 43.9292 53.0869 43.7875C52.9036 43.6375 52.7661 43.4542 52.6744 43.2375L51.3244 39.55H43.8369L42.4869 43.2375C42.4202 43.4292 42.2911 43.6042 42.0994 43.7625C41.9077 43.9208 41.6702 44 41.3869 44H38.7619L45.8744 25.925H49.2994L56.3994 44ZM67.2625 28.6875H61.8125V44H58.45V28.6875H53V25.925H67.2625V28.6875ZM82.9902 25.925V44H79.6152V36.1H71.1277V44H67.7527V25.925H71.1277V33.7H79.6152V25.925H82.9902ZM88.5154 28.6V33.6125H94.8404V36.2H88.5154V41.3125H96.5404V44H85.1404V25.925H96.5404V28.6H88.5154ZM103.108 34.525C103.741 34.525 104.291 34.4458 104.758 34.2875C105.233 34.1292 105.62 33.9125 105.92 33.6375C106.229 33.3542 106.458 33.0208 106.608 32.6375C106.758 32.2542 106.833 31.8333 106.833 31.375C106.833 30.4583 106.529 29.7542 105.92 29.2625C105.32 28.7708 104.399 28.525 103.158 28.525H101.008V34.525H103.108ZM111.758 44H108.72C108.145 44 107.729 43.775 107.47 43.325L103.67 37.5375C103.529 37.3208 103.37 37.1667 103.195 37.075C103.029 36.9833 102.779 36.9375 102.445 36.9375H101.008V44H97.6453V25.925H103.158C104.383 25.925 105.433 26.0542 106.308 26.3125C107.191 26.5625 107.912 26.9167 108.47 27.375C109.037 27.8333 109.454 28.3833 109.72 29.025C109.987 29.6583 110.12 30.3583 110.12 31.125C110.12 31.7333 110.029 32.3083 109.845 32.85C109.67 33.3917 109.412 33.8833 109.07 34.325C108.737 34.7667 108.32 35.1542 107.82 35.4875C107.329 35.8208 106.766 36.0833 106.133 36.275C106.349 36.4 106.549 36.55 106.733 36.725C106.916 36.8917 107.083 37.0917 107.233 37.325L111.758 44Z" fill="white"/>
<path d="M140.089 25.925L134.476 44H131.439L127.489 31.65C127.381 31.35 127.281 30.9833 127.189 30.55C127.139 30.7583 127.089 30.9542 127.039 31.1375C126.989 31.3208 126.935 31.4917 126.876 31.65L122.889 44H119.839L114.239 25.925H117.051C117.343 25.925 117.585 25.9958 117.776 26.1375C117.976 26.2708 118.11 26.4542 118.176 26.6875L121.251 37.5C121.318 37.7667 121.381 38.0583 121.439 38.375C121.506 38.6833 121.572 39.0083 121.639 39.35C121.706 39 121.776 38.6708 121.851 38.3625C121.935 38.0542 122.022 37.7667 122.114 37.5L125.664 26.6875C125.731 26.4958 125.86 26.3208 126.051 26.1625C126.251 26.0042 126.493 25.925 126.776 25.925H127.764C128.056 25.925 128.293 25.9958 128.476 26.1375C128.66 26.2792 128.797 26.4625 128.889 26.6875L132.426 37.5C132.601 38.0167 132.76 38.6125 132.901 39.2875C133.01 38.6292 133.131 38.0333 133.264 37.5L136.339 26.6875C136.389 26.4792 136.514 26.3 136.714 26.15C136.922 26 137.168 25.925 137.451 25.925H140.089ZM143.808 44H140.433V25.925H143.808V44ZM155.605 29.2125C155.505 29.3875 155.397 29.5167 155.28 29.6C155.172 29.675 155.034 29.7125 154.868 29.7125C154.693 29.7125 154.501 29.65 154.293 29.525C154.093 29.3917 153.851 29.2458 153.568 29.0875C153.284 28.9292 152.951 28.7875 152.568 28.6625C152.193 28.5292 151.747 28.4625 151.23 28.4625C150.764 28.4625 150.355 28.5208 150.005 28.6375C149.655 28.7458 149.359 28.9 149.118 29.1C148.884 29.3 148.709 29.5417 148.593 29.825C148.476 30.1 148.418 30.4042 148.418 30.7375C148.418 31.1625 148.534 31.5167 148.768 31.8C149.009 32.0833 149.326 32.325 149.718 32.525C150.109 32.725 150.555 32.9042 151.055 33.0625C151.555 33.2208 152.068 33.3917 152.593 33.575C153.118 33.75 153.63 33.9583 154.13 34.2C154.63 34.4333 155.076 34.7333 155.468 35.1C155.859 35.4583 156.172 35.9 156.405 36.425C156.647 36.95 156.768 37.5875 156.768 38.3375C156.768 39.1542 156.626 39.9208 156.343 40.6375C156.068 41.3458 155.659 41.9667 155.118 42.5C154.584 43.025 153.93 43.4417 153.155 43.75C152.38 44.05 151.493 44.2 150.493 44.2C149.918 44.2 149.351 44.1417 148.793 44.025C148.234 43.9167 147.697 43.7583 147.18 43.55C146.672 43.3417 146.193 43.0917 145.743 42.8C145.293 42.5083 144.893 42.1833 144.543 41.825L145.53 40.2125C145.614 40.0958 145.722 40 145.855 39.925C145.989 39.8417 146.13 39.8 146.28 39.8C146.489 39.8 146.714 39.8875 146.955 40.0625C147.197 40.2292 147.484 40.4167 147.818 40.625C148.151 40.8333 148.539 41.025 148.98 41.2C149.43 41.3667 149.968 41.45 150.593 41.45C151.551 41.45 152.293 41.225 152.818 40.775C153.343 40.3167 153.605 39.6625 153.605 38.8125C153.605 38.3375 153.484 37.95 153.243 37.65C153.009 37.35 152.697 37.1 152.305 36.9C151.914 36.6917 151.468 36.5167 150.968 36.375C150.468 36.2333 149.959 36.0792 149.443 35.9125C148.926 35.7458 148.418 35.5458 147.918 35.3125C147.418 35.0792 146.972 34.775 146.58 34.4C146.189 34.025 145.872 33.5583 145.63 33C145.397 32.4333 145.28 31.7375 145.28 30.9125C145.28 30.2542 145.409 29.6125 145.668 28.9875C145.934 28.3625 146.318 27.8083 146.818 27.325C147.318 26.8417 147.934 26.4542 148.668 26.1625C149.401 25.8708 150.243 25.725 151.193 25.725C152.259 25.725 153.243 25.8917 154.143 26.225C155.043 26.5583 155.809 27.025 156.443 27.625L155.605 29.2125ZM161.201 28.6V33.6125H167.526V36.2H161.201V41.3125H169.226V44H157.826V25.925H169.226V28.6H161.201Z" fill="#2D004A"/>
<defs>
<filter id="filter0_bi_8_625" x="-52" y="-52" width="133" height="121" filterUnits="userSpaceOnUse" color-interpolation-filters="sRGB">
<feFlood flood-opacity="0" result="BackgroundImageFix"/>
<feGaussianBlur in="BackgroundImageFix" stdDeviation="26"/>
<feComposite in2="SourceAlpha" operator="in" result="effect1_backgroundBlur_8_625"/>
<feBlend mode="normal" in="SourceGraphic" in2="effect1_backgroundBlur_8_625" result="shape"/>
<feColorMatrix in="SourceAlpha" type="matrix" values="0 0 0 0 0 0 0 0 0 0 0 0 0 0 0 0 0 0 127 0" result="hardAlpha"/>
<feOffset/>
<feGaussianBlur stdDeviation="22.5"/>
<feComposite in2="hardAlpha" operator="arithmetic" k2="-1" k3="1"/>
<feColorMatrix type="matrix" values="0 0 0 0 1 0 0 0 0 1 0 0 0 0 1 0 0 0 1 0"/>
<feBlend mode="normal" in2="shape" result="effect2_innerShadow_8_625"/>
</filter>
<linearGradient id="paint0_linear_8_625" x1="14.5" y1="0" x2="14.5" y2="17" gradientUnits="userSpaceOnUse">
<stop stop-color="#DDECFD"/>
<stop offset="1" stop-color="#BBD9FC" stop-opacity="0"/>
</linearGradient>
<radialGradient id="paint1_radial_8_625" cx="0" cy="0" r="1" gradientUnits="userSpaceOnUse" gradientTransform="translate(141.5 34.5) rotate(89.5386) scale(47.6015 52.1345)">
<stop offset="0.323566" stop-color="#FF7D05"/>
<stop offset="0.828125" stop-color="#FECF57"/>
</radialGradient>
</defs>
</svg>
